<svg width="18" height="18" viewBox="0 0 18 18" fill="none" xmlns="http://www.w3.org/2000/svg">
<g clip-path="url(#clip0_69_9501)">
<path d="M12.1725 12.1731C13.9665 10.3791 13.9665 7.4705 12.1725 5.67653C10.3786 3.88256 7.46998 3.88256 5.67601 5.67653C3.88204 7.4705 3.88204 10.3791 5.67601 12.1731C7.46998 13.967 10.3786 13.967 12.1725 12.1731Z" stroke="#303481" stroke-width="1.5"/>
<path d="M9.85259 9.85288C10.3652 9.34032 10.3652 8.50929 9.85259 7.99673C9.34003 7.48416 8.509 7.48416 7.99644 7.99673C7.48387 8.50929 7.48387 9.34032 7.99644 9.85288C8.509 10.3654 9.34003 10.3654 9.85259 9.85288Z" fill="#303481" stroke="#303481" stroke-width="1.5"/>
<path d="M4.33064 8.9248H1.5M8.92462 4.33082L8.92462 1.50018M16.3492 8.9248H13.5186M8.92462 16.3494L8.92462 13.5188" stroke="#303481" stroke-width="1.5" stroke-linecap="round"/>
</g>
<defs>
<clipPath id="clip0_69_9501">
<rect width="18" height="18" fill="white"/>
</clipPath>
</defs>
</svg>
