<svg width="339" height="158" viewBox="0 0 339 158" fill="none" xmlns="http://www.w3.org/2000/svg">
<rect x="0.5" y="0.5" width="338" height="157" rx="8.5" fill="white"/>
<rect x="0.5" y="0.5" width="338" height="157" rx="8.5" stroke="#E6E6E6"/>
<path d="M25.5 17.5L29 40.5L212 154.5M50.5 14L52.5 36L286.5 154.5M72.5 11.5L74.5 32.5L335 144M92.5 9L94.5 29.5L335 118M111.5 6.5L112 25.5L335 98.5M128.5 4.5L129.5 23.5L335 82.5M144.5 2.5L145 20.5L335 71" stroke="#E6E5E6" stroke-width="0.5"/>
<path d="M161.5 2L162 19.5L11 46M193 8V27L30.5 61.5M232.5 14.5L231.5 36L58 83M284 23.5L282 47.5L100 115M193 155.5L335.5 72.5" stroke="#E6E5E6" stroke-width="0.5"/>
<path d="M4 24L157.5 4L335 37M5.5 29.5L157.5 8L335 43.5M5.5 35L157.5 11.5L335 50M7 40.5L157.5 16L335 57" stroke="#E6E5E6" stroke-width="0.5"/>
<circle cx="158.5" cy="5" r="2.5" fill="#A90D1F"/>
<circle cx="172.5" cy="10" r="2.5" fill="#CA5745"/>
<circle cx="187.5" cy="16" r="2.5" fill="#E69463"/>
<circle cx="207.5" cy="24" r="2.5" fill="#EFC19A"/>
<circle cx="233.5" cy="34" r="2.5" fill="#E6CFB9"/>
<circle cx="267.5" cy="49" r="2.5" fill="#DCDCDC"/>
<circle cx="316.5" cy="69" r="2.5" fill="#E9CCB0"/>
<circle cx="171.5" cy="92" r="2.5" fill="#EDB081"/>
<circle cx="189.5" cy="113" r="2.5" fill="#C3463D"/>
<path d="M167.396 27.9937L168.021 27.925C168.055 28.1749 168.127 28.3796 168.237 28.539C168.35 28.696 168.521 28.8221 168.75 28.9172C168.98 29.0101 169.237 29.0533 169.522 29.047C169.775 29.0413 169.997 28.9987 170.19 28.9192C170.382 28.8397 170.523 28.734 170.614 28.602C170.708 28.4677 170.753 28.3231 170.75 28.1682C170.747 28.011 170.699 27.8753 170.606 27.7612C170.512 27.6447 170.36 27.549 170.149 27.474C170.014 27.4246 169.715 27.3503 169.253 27.2513C168.79 27.1499 168.466 27.0524 168.28 26.9585C168.038 26.8386 167.856 26.6876 167.734 26.5058C167.615 26.3215 167.553 26.1144 167.548 25.8843C167.544 25.6314 167.611 25.394 167.751 25.1721C167.89 24.9479 168.096 24.7757 168.37 24.6556C168.643 24.5356 168.949 24.4718 169.286 24.4642C169.657 24.4559 169.985 24.509 170.27 24.6234C170.557 24.7355 170.779 24.906 170.936 25.135C171.093 25.364 171.18 25.6253 171.197 25.9189L170.562 25.981C170.522 25.665 170.401 25.4284 170.2 25.2711C170.001 25.1137 169.709 25.0394 169.324 25.048C168.923 25.0569 168.632 25.1375 168.45 25.2897C168.271 25.4396 168.183 25.6182 168.187 25.8256C168.19 26.0055 168.258 26.1522 168.39 26.2655C168.519 26.3788 168.854 26.491 169.394 26.602C169.936 26.7106 170.309 26.8083 170.511 26.8949C170.805 27.0228 171.023 27.1889 171.166 27.3931C171.309 27.595 171.383 27.8304 171.388 28.0992C171.393 28.3658 171.321 28.6192 171.173 28.8596C171.025 29.0977 170.808 29.286 170.524 29.4245C170.242 29.5608 169.922 29.6329 169.564 29.6409C169.111 29.651 168.729 29.5935 168.419 29.4682C168.111 29.3429 167.867 29.1501 167.687 28.8897C167.509 28.6271 167.412 28.3284 167.396 27.9937Z" fill="black"/>
<path d="M160.666 47.5979L160.572 42.588L164.194 42.507L164.205 43.0982L161.246 43.1644L161.275 44.6988L164.046 44.6368L164.057 45.2246L161.286 45.2866L161.318 46.9919L164.393 46.923L164.404 47.5143L160.666 47.5979Z" fill="black"/>
<path d="M13.1704 67.0542L12.9515 66.0494L11.1324 66.4526L11.0295 65.9803L12.3508 62.8367L12.7712 62.7435L13.3635 65.463L13.9299 65.3375L14.0327 65.8098L13.4664 65.9353L13.6852 66.9401L13.1704 67.0542ZM12.8487 65.5771L12.4365 63.6849L11.5358 65.8681L12.8487 65.5771ZM14.3299 64.6276C14.2219 64.1314 14.1855 63.7214 14.2209 63.3975C14.2578 63.0712 14.3585 62.8038 14.5229 62.5953C14.6893 62.3864 14.9251 62.2481 15.2302 62.1805C15.4552 62.1306 15.6625 62.1327 15.8522 62.1867C16.0414 62.2387 16.21 62.3384 16.358 62.4856C16.5056 62.631 16.6377 62.8198 16.7542 63.052C16.8704 63.2823 16.9737 63.6055 17.0644 64.0215C17.1716 64.5139 17.2077 64.923 17.1728 65.2488C17.1374 65.5727 17.0367 65.8401 16.8707 66.051C16.7063 66.2595 16.4705 66.3977 16.1635 66.4658C15.7593 66.5554 15.4102 66.4807 15.1163 66.2418C14.7637 65.9538 14.5016 65.4158 14.3299 64.6276ZM14.8591 64.5103C15.0091 65.1993 15.1892 65.6405 15.3992 65.834C15.6108 66.0251 15.8348 66.0945 16.0712 66.0421C16.3077 65.9897 16.4811 65.8312 16.5914 65.5667C16.7036 65.3018 16.6848 64.8258 16.5352 64.1388C16.3847 63.448 16.2037 63.007 15.9922 62.8158C15.7826 62.6242 15.5576 62.555 15.3173 62.6083C15.0809 62.6607 14.9139 62.8027 14.8165 63.0344C14.6948 63.3294 14.709 63.8214 14.8591 64.5103ZM19.9807 65.5447L19.4658 65.6588L18.7507 62.3754C18.6525 62.5212 18.5153 62.6757 18.3389 62.8388C18.1645 63.0015 18.0036 63.1302 17.8563 63.2248L17.7478 62.7267C18.0062 62.5274 18.2222 62.3075 18.3957 62.067C18.5692 61.8265 18.681 61.6057 18.7311 61.4045L19.0629 61.331L19.9807 65.5447ZM21.591 65.1877L21.4632 64.6009L22.0496 64.471L22.1774 65.0578L21.591 65.1877ZM25.5304 63.7954L25.6383 64.2907L22.8667 64.905C22.8359 64.7818 22.8299 64.6581 22.8488 64.5339C22.8782 64.3293 22.9502 64.1183 23.0648 63.9008C23.1812 63.683 23.3601 63.4213 23.6014 63.1157C23.9756 62.6407 24.2192 62.2766 24.332 62.0236C24.4443 61.7686 24.4793 61.5438 24.4369 61.3491C24.3925 61.1449 24.2816 60.9894 24.1045 60.8827C23.9288 60.7736 23.7237 60.745 23.4891 60.797C23.2412 60.852 23.0591 60.9703 22.9428 61.1522C22.8265 61.334 22.7961 61.5568 22.8515 61.8206L22.3105 61.8835C22.2607 61.4804 22.3316 61.1496 22.5232 60.8911C22.7143 60.6307 23.0091 60.4563 23.4077 60.3679C23.81 60.2788 24.1528 60.3198 24.4359 60.4911C24.7191 60.6624 24.8967 60.9131 24.9686 61.2433C25.0051 61.4112 25.0068 61.5839 24.9735 61.7613C24.9401 61.9388 24.8629 62.1349 24.7418 62.3498C24.6226 62.5643 24.4122 62.869 24.1104 63.264C23.858 63.592 23.6982 63.8125 23.6308 63.9254C23.563 64.0365 23.5107 64.1451 23.4739 64.2513L25.5304 63.7954ZM26.3391 64.1353L25.425 59.9388L25.9399 59.8247L26.4611 62.2178L27.4102 60.7111L28.0767 60.5634L27.1611 61.9486L28.8561 63.5774L28.2211 63.7182L26.8786 62.3863L26.5914 62.8161L26.8539 64.0212L26.3391 64.1353Z" fill="black"/>
<path d="M38.1704 90.0542L37.9515 89.0494L36.1324 89.4526L36.0295 88.9803L37.3508 85.8367L37.7712 85.7435L38.3635 88.463L38.9299 88.3375L39.0327 88.8098L38.4664 88.9353L38.6852 89.9401L38.1704 90.0542ZM37.8487 88.5771L37.4365 86.6849L36.5358 88.8681L37.8487 88.5771ZM39.3299 87.6276C39.2219 87.1314 39.1855 86.7214 39.2209 86.3975C39.2578 86.0712 39.3585 85.8038 39.5229 85.5953C39.6893 85.3864 39.9251 85.2481 40.2302 85.1805C40.4552 85.1306 40.6625 85.1327 40.8522 85.1867C41.0414 85.2387 41.21 85.3384 41.358 85.4856C41.5056 85.631 41.6377 85.8198 41.7542 86.052C41.8704 86.2823 41.9737 86.6055 42.0644 87.0215C42.1716 87.5139 42.2077 87.923 42.1728 88.2488C42.1374 88.5727 42.0367 88.8401 41.8707 89.051C41.7063 89.2595 41.4705 89.3977 41.1635 89.4658C40.7593 89.5554 40.4102 89.4807 40.1163 89.2418C39.7637 88.9538 39.5016 88.4158 39.3299 87.6276ZM39.8591 87.5103C40.0091 88.1993 40.1892 88.6405 40.3992 88.834C40.6108 89.0251 40.8348 89.0945 41.0712 89.0421C41.3077 88.9897 41.4811 88.8312 41.5914 88.5667C41.7036 88.3018 41.6848 87.8258 41.5352 87.1388C41.3847 86.448 41.2037 86.007 40.9922 85.8158C40.7826 85.6242 40.5576 85.555 40.3173 85.6083C40.0809 85.6607 39.9139 85.8027 39.8165 86.0344C39.6948 86.3294 39.709 86.8214 39.8591 87.5103ZM44.9807 88.5447L44.4658 88.6588L43.7507 85.3754C43.6525 85.5212 43.5153 85.6757 43.3389 85.8388C43.1645 86.0015 43.0036 86.1302 42.8563 86.2248L42.7478 85.7267C43.0062 85.5274 43.2222 85.3075 43.3957 85.067C43.5692 84.8265 43.681 84.6057 43.7311 84.4045L44.0629 84.331L44.9807 88.5447ZM46.591 88.1877L46.4632 87.6009L47.0496 87.471L47.1774 88.0578L46.591 88.1877ZM50.5304 86.7954L50.6383 87.2907L47.8667 87.905C47.8359 87.7818 47.8299 87.6581 47.8488 87.5339C47.8782 87.3293 47.9502 87.1183 48.0648 86.9008C48.1812 86.683 48.3601 86.4213 48.6014 86.1157C48.9756 85.6407 49.2192 85.2766 49.332 85.0236C49.4443 84.7686 49.4793 84.5438 49.4369 84.3491C49.3925 84.1449 49.2816 83.9894 49.1045 83.8827C48.9288 83.7736 48.7237 83.745 48.4891 83.797C48.2412 83.852 48.0591 83.9703 47.9428 84.1522C47.8265 84.334 47.7961 84.5568 47.8515 84.8206L47.3105 84.8835C47.2607 84.4804 47.3316 84.1496 47.5232 83.8911C47.7143 83.6307 48.0091 83.4563 48.4077 83.3679C48.81 83.2788 49.1528 83.3198 49.4359 83.4911C49.7191 83.6624 49.8967 83.9131 49.9686 84.2433C50.0051 84.4112 50.0068 84.5839 49.9735 84.7613C49.9401 84.9388 49.8629 85.1349 49.7418 85.3498C49.6226 85.5643 49.4122 85.869 49.1104 86.264C48.858 86.592 48.6982 86.8125 48.6308 86.9254C48.563 87.0365 48.5107 87.1451 48.4739 87.2513L50.5304 86.7954ZM50.9538 86.0684L51.4844 85.9028C51.5818 86.1573 51.7175 86.3353 51.8915 86.4367C52.067 86.5359 52.2577 86.5626 52.4637 86.517C52.7116 86.462 52.901 86.322 53.0318 86.097C53.1627 85.8719 53.1945 85.6048 53.1272 85.2956C53.0632 85.0017 52.9297 84.7883 52.7268 84.6552C52.5258 84.5217 52.2919 84.4845 52.0249 84.5437C51.859 84.5805 51.7176 84.6518 51.6008 84.7577C51.4835 84.8617 51.3998 84.9823 51.3497 85.1195L50.8526 85.1636L50.7893 82.9181L52.8745 82.4559L52.9817 82.9483L51.3084 83.3191L51.3281 84.4971C51.5416 84.2657 51.7866 84.1194 52.0631 84.0581C52.4292 83.977 52.7657 84.0354 53.0727 84.2334C53.3797 84.4315 53.5766 84.7299 53.6635 85.1287C53.7462 85.5085 53.7071 85.8613 53.5462 86.187C53.3513 86.5863 53.0212 86.8375 52.556 86.9406C52.1746 87.0252 51.8395 86.9874 51.5508 86.8273C51.264 86.6668 51.065 86.4139 50.9538 86.0684ZM54.5998 86.4126L53.6857 82.2161L54.2006 82.1019L54.7218 84.4951L55.671 82.9884L56.3374 82.8406L55.4218 84.2259L57.1168 85.8547L56.4818 85.9954L55.1393 84.6636L54.8521 85.0933L55.1146 86.2985L54.5998 86.4126Z" fill="black"/>
<path d="M80.6953 124.535L80.3778 123.557L78.6077 124.138L78.4584 123.679L79.4608 120.419L79.87 120.285L80.7294 122.932L81.2805 122.751L81.4298 123.211L80.8787 123.392L81.1963 124.37L80.6953 124.535ZM80.2285 123.097L79.6305 121.255L78.951 123.517L80.2285 123.097ZM81.6081 122.005C81.4513 121.522 81.3744 121.117 81.3775 120.792C81.3817 120.463 81.4554 120.187 81.5983 119.963C81.7431 119.739 81.964 119.578 82.2608 119.48C82.4798 119.409 82.6863 119.39 82.8804 119.425C83.0739 119.458 83.2515 119.54 83.4134 119.672C83.5747 119.802 83.7249 119.977 83.8639 120.196C84.0024 120.414 84.1373 120.725 84.2688 121.13C84.4244 121.609 84.501 122.013 84.4986 122.341C84.4955 122.667 84.4219 122.943 84.2777 123.169C84.1348 123.393 83.9139 123.554 83.6152 123.652C83.2218 123.781 82.8671 123.742 82.5509 123.533C82.1715 123.281 81.8572 122.772 81.6081 122.005ZM82.123 121.836C82.3407 122.506 82.5637 122.927 82.792 123.099C83.0214 123.268 83.2512 123.315 83.4813 123.239C83.7114 123.164 83.8681 122.989 83.9516 122.715C84.037 122.44 83.9711 121.968 83.7539 121.299C83.5356 120.627 83.3117 120.206 83.0822 120.037C82.8546 119.867 82.6239 119.821 82.3901 119.897C82.16 119.973 82.008 120.131 81.934 120.371C81.8423 120.677 81.9053 121.165 82.123 121.836ZM87.322 122.356L86.821 122.521L85.7833 119.325C85.7001 119.48 85.5789 119.647 85.4196 119.827C85.2622 120.006 85.1149 120.15 84.9777 120.259L84.8203 119.774C85.0576 119.55 85.2507 119.31 85.3994 119.053C85.5482 118.797 85.6375 118.566 85.6674 118.361L85.9903 118.254L87.322 122.356ZM88.8889 121.841L88.7035 121.27L89.274 121.082L89.4595 121.654L88.8889 121.841ZM89.8469 120.333L90.3261 120.101C90.4759 120.366 90.64 120.54 90.8183 120.621C90.9979 120.7 91.1869 120.706 91.3855 120.641C91.6211 120.564 91.7931 120.417 91.9014 120.2C92.0116 119.983 92.0275 119.754 91.9491 119.512C91.8743 119.282 91.7377 119.117 91.5391 119.018C91.34 118.917 91.1244 118.904 90.8925 118.98C90.7979 119.012 90.6861 119.069 90.5572 119.152L90.4699 118.694C90.5045 118.687 90.532 118.68 90.5524 118.673C90.7658 118.603 90.9397 118.484 91.0742 118.316C91.2087 118.149 91.2383 117.949 91.1629 117.717C91.1032 117.533 90.9916 117.401 90.8281 117.321C90.6645 117.241 90.4844 117.233 90.2878 117.298C90.0929 117.362 89.9505 117.477 89.8604 117.642C89.7703 117.807 89.7466 118.019 89.7891 118.276L89.2592 118.352C89.2112 117.995 89.2659 117.69 89.4233 117.434C89.5801 117.177 89.8199 116.996 90.1427 116.889C90.3654 116.816 90.5861 116.797 90.8049 116.832C91.023 116.865 91.2081 116.948 91.3601 117.081C91.514 117.214 91.6211 117.373 91.6814 117.559C91.7387 117.735 91.7436 117.911 91.696 118.087C91.6484 118.263 91.5457 118.424 91.3879 118.571C91.6472 118.547 91.8723 118.602 92.0632 118.734C92.2535 118.865 92.3914 119.062 92.4771 119.326C92.5929 119.683 92.5613 120.028 92.3824 120.363C92.2028 120.695 91.9145 120.927 91.5175 121.057C91.1594 121.175 90.8269 121.166 90.52 121.03C90.215 120.894 89.9907 120.662 89.8469 120.333ZM93.509 120.322L92.1826 116.237L92.6836 116.073L93.44 118.402L94.2347 116.809L94.8832 116.595L94.1097 118.065L95.9581 119.517L95.3403 119.72L93.8721 118.528L93.629 118.984L94.0099 120.158L93.509 120.322Z" fill="black"/>
<path d="M23.048 94.4665L26.2363 90.6009L26.7626 91.0318L26.2958 95.7339L28.799 92.6989L29.2909 93.1016L26.1027 96.9672L25.5764 96.5363L26.0453 91.8316L23.5399 94.8692L23.048 94.4665ZM27.8843 96.0802C28.312 95.5616 28.7734 95.2959 29.2684 95.283C29.6811 95.2733 30.0611 95.4106 30.4084 95.695C30.7945 96.0111 31.0058 96.396 31.0421 96.8498C31.0798 97.3018 30.9153 97.7502 30.5484 98.1949C30.2512 98.5553 29.9624 98.7944 29.682 98.9124C29.4048 99.03 29.1151 99.0608 28.8128 99.0047C28.5122 98.9501 28.2394 98.8225 27.9944 98.6218C27.6012 98.3 27.3866 97.9137 27.3506 97.4632C27.3164 97.014 27.4943 96.553 27.8843 96.0802ZM28.3736 96.4807C28.0778 96.8393 27.9344 97.1725 27.9435 97.4803C27.9539 97.7863 28.0782 98.0367 28.3162 98.2316C28.5525 98.425 28.823 98.4963 29.1278 98.4455C29.4327 98.3946 29.7366 98.1855 30.0396 97.8181C30.3252 97.4718 30.4619 97.1449 30.4497 96.8375C30.4406 96.5297 30.3189 96.2799 30.0844 96.0879C29.8463 95.893 29.5756 95.8201 29.2723 95.8692C28.9689 95.9183 28.6693 96.1221 28.3736 96.4807ZM29.9164 100.089L32.2261 97.289L32.6545 97.6398L32.3044 98.0643C32.5775 97.9552 32.786 97.9065 32.9299 97.9182C33.0756 97.9315 33.2039 97.9835 33.315 98.0745C33.4754 98.2058 33.5965 98.3903 33.6781 98.628L33.151 98.9341C33.0911 98.7702 33.003 98.6407 32.8867 98.5454C32.7826 98.4603 32.6631 98.4154 32.528 98.4108C32.3944 98.4045 32.2643 98.4423 32.1377 98.5242C31.9456 98.6496 31.7669 98.8126 31.6017 99.013L30.3925 100.479L29.9164 100.089ZM33.1149 101.997L32.8379 102.472C32.6807 102.391 32.5492 102.306 32.4434 102.22C32.2706 102.078 32.1591 101.941 32.1088 101.809C32.0586 101.677 32.0503 101.551 32.084 101.431C32.1192 101.31 32.2542 101.106 32.4891 100.822L33.8179 99.2106L33.4688 98.9248L33.7732 98.5556L34.1223 98.8414L34.6943 98.1479L35.4026 98.2507L34.5958 99.229L35.0745 99.6209L34.77 99.99L34.2913 99.5981L32.9407 101.236C32.8291 101.371 32.7652 101.464 32.7492 101.516C32.7349 101.569 32.7369 101.622 32.7551 101.676C32.775 101.73 32.8203 101.786 32.8908 101.844C32.9437 101.887 33.0184 101.938 33.1149 101.997ZM33.2329 102.804L36.4212 98.9388L36.8973 99.3286L35.7533 100.716C36.1871 100.641 36.5733 100.742 36.9119 101.019C37.1199 101.189 37.2666 101.379 37.3518 101.587C37.4385 101.793 37.455 101.995 37.4014 102.193C37.3495 102.392 37.2105 102.628 36.9843 102.903L35.5206 104.677L35.0446 104.287L36.5082 102.513C36.704 102.276 36.794 102.061 36.7785 101.868C36.7661 101.676 36.6656 101.502 36.4769 101.348C36.3359 101.232 36.1723 101.16 35.9862 101.131C35.8033 101.102 35.634 101.129 35.4782 101.21C35.3223 101.292 35.1538 101.442 34.9725 101.662L33.709 103.194L33.2329 102.804ZM38.9887 101.955L39.4389 101.409L39.9149 101.799L39.4647 102.345L38.9887 101.955ZM36.2506 105.275L38.5602 102.475L39.0363 102.864L36.7266 105.665L36.2506 105.275ZM37.4539 106.26L39.7636 103.46L40.1921 103.81L39.8637 104.209C40.3237 104.07 40.7485 104.16 41.1382 104.479C41.3074 104.617 41.4372 104.775 41.5275 104.952C41.6211 105.129 41.6625 105.295 41.6518 105.452C41.6412 105.608 41.5941 105.765 41.5107 105.924C41.4558 106.026 41.3378 106.187 41.1565 106.407L39.7364 108.128L39.2603 107.739L40.6652 106.035C40.8247 105.842 40.9251 105.683 40.9664 105.557C41.0091 105.43 41.006 105.3 40.9572 105.166C40.9116 105.031 40.8254 104.912 40.6984 104.808C40.4956 104.642 40.2673 104.563 40.0133 104.57C39.7612 104.578 39.4872 104.762 39.1914 105.12L37.93 106.65L37.4539 106.26ZM40.1903 108.889L40.5966 109.336C40.4985 109.494 40.4668 109.642 40.5013 109.779C40.5469 109.964 40.672 110.14 40.8765 110.307C41.0969 110.488 41.3033 110.583 41.4957 110.594C41.6881 110.604 41.8707 110.547 42.0435 110.424C42.1479 110.347 42.3269 110.153 42.5803 109.843C42.1707 109.917 41.8107 109.827 41.5004 109.573C41.1143 109.256 40.93 108.873 40.9475 108.422C40.965 107.971 41.1339 107.551 41.4544 107.163C41.6747 106.896 41.9262 106.689 42.2088 106.544C42.4928 106.396 42.7772 106.336 43.0621 106.363C43.3487 106.392 43.6163 106.508 43.8649 106.711C44.1964 106.983 44.3595 107.34 44.3542 107.783L44.6326 107.446L45.0716 107.805L43.0751 110.226C42.7156 110.662 42.4162 110.933 42.1769 111.041C41.938 111.151 41.678 111.18 41.3971 111.127C41.1179 111.075 40.8372 110.933 40.5551 110.703C40.2201 110.428 40.0118 110.131 39.9302 109.811C39.8472 109.493 39.9339 109.185 40.1903 108.889ZM41.9719 107.529C41.6689 107.896 41.521 108.224 41.5281 108.513C41.5353 108.802 41.649 109.036 41.8694 109.216C42.0881 109.395 42.3403 109.462 42.6261 109.416C42.9134 109.369 43.205 109.166 43.5008 108.807C43.7835 108.464 43.9199 108.143 43.9101 107.844C43.902 107.545 43.7904 107.308 43.5753 107.132C43.3637 106.959 43.1128 106.898 42.8226 106.949C42.5338 106.998 42.2503 107.192 41.9719 107.529ZM44.9639 114.312C44.9738 113.766 45.0706 113.198 45.2544 112.606C45.4382 112.014 45.7258 111.481 46.1172 111.007C46.4623 110.588 46.8608 110.243 47.3126 109.971C47.8381 109.656 48.4486 109.414 49.144 109.244L49.4851 109.523C48.9702 109.714 48.6138 109.86 48.416 109.96C48.1084 110.114 47.815 110.298 47.5358 110.511C47.1889 110.778 46.8784 111.078 46.6043 111.41C45.907 112.255 45.4739 113.316 45.3051 114.591L44.9639 114.312ZM46.8508 113.953L50.0391 110.087L50.5654 110.518L50.0986 115.22L52.6018 112.185L53.0937 112.588L49.9055 116.453L49.3791 116.022L49.8481 111.318L47.3427 114.355L46.8508 113.953ZM50.298 116.885L54.7191 113.808L55.0999 114.12L50.6815 117.199L50.298 116.885ZM53.3701 119.29L54.7206 117.652L55.0641 114.201L55.6882 114.712L55.4913 116.503C55.4526 116.836 55.4042 117.162 55.346 117.48C55.6291 117.373 55.9579 117.26 56.3325 117.143L58.0209 116.621L58.6186 117.111L55.2337 118.072L53.8832 119.71L53.3701 119.29ZM55.2044 122.695L54.8633 122.416C56.0864 122.004 57.0467 121.375 57.7441 120.529C58.0166 120.199 58.2491 119.84 58.4415 119.453C58.5991 119.14 58.7241 118.818 58.8166 118.488C58.8784 118.273 58.9539 117.893 59.0433 117.348L59.3844 117.627C59.352 118.34 59.2317 118.983 59.0236 119.558C58.8433 120.052 58.5806 120.509 58.2355 120.927C57.844 121.402 57.3739 121.786 56.8252 122.078C56.2782 122.373 55.738 122.578 55.2044 122.695Z" fill="black"/>
<path d="M129.396 122.5L129.409 118.921H130.996C131.315 118.921 131.558 118.953 131.723 119.019C131.889 119.082 132.021 119.195 132.12 119.358C132.219 119.521 132.268 119.701 132.267 119.897C132.266 120.151 132.183 120.365 132.018 120.54C131.853 120.714 131.599 120.824 131.255 120.872C131.38 120.932 131.475 120.991 131.54 121.05C131.678 121.177 131.809 121.335 131.932 121.526L132.55 122.5H131.955L131.484 121.755C131.346 121.541 131.233 121.376 131.144 121.262C131.055 121.148 130.975 121.068 130.903 121.023C130.833 120.977 130.762 120.946 130.689 120.928C130.635 120.916 130.547 120.911 130.425 120.911H129.876L129.87 122.5H129.396ZM129.877 120.5H130.895C131.112 120.5 131.281 120.478 131.403 120.435C131.526 120.389 131.619 120.317 131.682 120.22C131.746 120.12 131.778 120.013 131.779 119.897C131.779 119.728 131.718 119.589 131.595 119.48C131.473 119.371 131.28 119.316 131.014 119.316H129.882L129.877 120.5ZM133.82 122.5L133.832 119.343H132.652L132.654 118.921H135.491L135.489 119.343H134.305L134.294 122.5H133.82ZM135.809 121.35L136.256 121.311C136.277 121.49 136.325 121.637 136.401 121.753C136.479 121.867 136.599 121.96 136.761 122.031C136.924 122.101 137.107 122.136 137.31 122.136C137.491 122.136 137.65 122.109 137.789 122.056C137.927 122.002 138.03 121.929 138.097 121.836C138.166 121.742 138.201 121.639 138.201 121.528C138.201 121.416 138.169 121.318 138.104 121.235C138.04 121.151 137.932 121.08 137.783 121.023C137.687 120.985 137.475 120.928 137.146 120.85C136.818 120.77 136.588 120.695 136.456 120.625C136.286 120.535 136.158 120.425 136.074 120.293C135.992 120.159 135.951 120.011 135.951 119.846C135.952 119.666 136.004 119.497 136.107 119.341C136.21 119.183 136.36 119.063 136.558 118.982C136.755 118.901 136.974 118.86 137.215 118.86C137.48 118.86 137.713 118.903 137.915 118.989C138.118 119.074 138.274 119.199 138.382 119.365C138.491 119.531 138.549 119.719 138.556 119.929L138.102 119.963C138.078 119.737 137.996 119.566 137.855 119.451C137.715 119.335 137.508 119.277 137.233 119.277C136.946 119.277 136.737 119.33 136.605 119.436C136.474 119.54 136.409 119.666 136.408 119.814C136.408 119.943 136.454 120.049 136.546 120.132C136.637 120.215 136.874 120.3 137.258 120.388C137.643 120.474 137.908 120.55 138.051 120.615C138.259 120.711 138.412 120.833 138.511 120.981C138.609 121.128 138.658 121.297 138.658 121.489C138.657 121.68 138.602 121.86 138.492 122.029C138.383 122.196 138.225 122.327 138.02 122.422C137.816 122.515 137.586 122.561 137.331 122.561C137.007 122.561 136.735 122.514 136.516 122.419C136.298 122.325 136.127 122.183 136.002 121.995C135.879 121.804 135.815 121.589 135.809 121.35Z" fill="black"/>
<path d="M223.527 30.6235L222.104 25.6434L222.784 25.6282L223.607 28.8953C223.696 29.2374 223.773 29.5776 223.838 29.9157C223.956 29.3775 224.025 29.0671 224.047 28.9846L224.937 25.58L225.736 25.5622L226.501 28.0818C226.693 28.7066 226.834 29.2949 226.924 29.8467C226.982 29.5286 227.058 29.1633 227.153 28.751L227.879 25.5142L228.545 25.4993L227.265 30.5399L226.626 30.5542L225.499 26.7606C225.404 26.4437 225.348 26.2489 225.331 26.1764C225.283 26.4076 225.237 26.6047 225.195 26.7674L224.203 30.6084L223.527 30.6235Z" fill="black"/>
<path d="M228.645 47.6218L228.552 42.6119L229.232 42.5967L231.936 46.4712L231.863 42.5378L232.498 42.5236L232.592 47.5335L231.912 47.5487L229.207 43.6708L229.281 47.6076L228.645 47.6218Z" fill="black"/>
<path d="M197.227 45.2207L226.5 54" stroke="#AA0408"/>
<path d="M166.5 53L197.5 45M222.5 38L197.5 45M197.5 45L172 37.5" stroke="black"/>
<rect x="148" y="57" width="44" height="44" rx="8" fill="white"/>
<path d="M182.445 70.9836C182.486 70.96 182.52 70.9262 182.543 70.8856C182.566 70.845 182.579 70.799 182.579 70.7522C182.579 70.7054 182.566 70.6594 182.543 70.6188C182.52 70.5782 182.486 70.5445 182.445 70.5209L172.165 64.5791C171.507 64.1998 170.76 64 170 64C169.239 64 168.493 64.1998 167.835 64.5791L157.556 70.5209C157.516 70.5445 157.482 70.5782 157.458 70.6188C157.435 70.6594 157.423 70.7054 157.423 70.7522C157.423 70.799 157.435 70.845 157.458 70.8856C157.482 70.9262 157.516 70.96 157.556 70.9836L169.865 78.1869C169.907 78.2111 169.954 78.2239 170.002 78.2239C170.05 78.2239 170.097 78.2111 170.139 78.1869L182.445 70.9836ZM156.404 72.8055C156.363 72.7819 156.316 72.7695 156.269 72.7696C156.221 72.7697 156.175 72.7822 156.134 72.8059C156.093 72.8296 156.059 72.8637 156.035 72.9046C156.012 72.9456 156 72.992 156 73.0392V84.6824C156.001 85.2435 156.15 85.7946 156.431 86.2808C156.713 86.767 157.117 87.1714 157.605 87.4538L168.519 93.9641C168.56 93.9876 168.607 94 168.654 94C168.701 94 168.747 93.9877 168.788 93.9642C168.829 93.9407 168.863 93.9069 168.887 93.8663C168.911 93.8256 168.923 93.7794 168.923 93.7324V80.2237C168.923 80.1768 168.911 80.1306 168.887 80.09C168.863 80.0493 168.829 80.0155 168.788 79.9921L156.404 72.8055ZM171.077 80.2706V93.7291C171.077 93.7761 171.089 93.8222 171.113 93.8629C171.137 93.9036 171.171 93.9374 171.212 93.9608C171.253 93.9843 171.299 93.9967 171.346 93.9967C171.393 93.9966 171.44 93.9843 171.481 93.9608L182.395 87.4505C182.882 87.1684 183.286 86.7646 183.568 86.279C183.849 85.7934 183.998 85.243 184 84.6824V73.0392C184 72.9922 183.987 72.9462 183.964 72.9056C183.94 72.865 183.906 72.8313 183.865 72.8079C183.824 72.7845 183.778 72.7722 183.731 72.7723C183.683 72.7723 183.637 72.7847 183.596 72.8082L171.212 80.0396C171.171 80.063 171.137 80.0967 171.113 80.1372C171.09 80.1778 171.077 80.2237 171.077 80.2706Z" fill="#D4D5E0"/>
</svg>
